<svg width="40" height="40" viewBox="0 0 40 40" fill="none" xmlns="http://www.w3.org/2000/svg">
<path d="M0 14.7692C0 9.59952 0 7.01466 1.00609 5.04009C1.89108 3.30321 3.30321 1.89108 5.04009 1.00609C7.01466 0 9.59952 0 14.7692 0H25.2308C30.4005 0 32.9853 0 34.9599 1.00609C36.6968 1.89108 38.1089 3.30321 38.9939 5.04009C40 7.01466 40 9.59952 40 14.7692V25.2308C40 30.4005 40 32.9853 38.9939 34.9599C38.1089 36.6968 36.6968 38.1089 34.9599 38.9939C32.9853 40 30.4005 40 25.2308 40H14.7692C9.59952 40 7.01466 40 5.04009 38.9939C3.30321 38.1089 1.89108 36.6968 1.00609 34.9599C0 32.9853 0 30.4005 0 25.2308V14.7692Z" fill="white"/>
<path d="M4.23096 18.0769C4.23096 17.6521 4.57535 17.3077 5.00019 17.3077C5.42502 17.3077 5.76942 17.6521 5.76942 18.0769V29.6154C5.76942 30.0402 5.42502 30.3846 5.00019 30.3846C4.57535 30.3846 4.23096 30.0402 4.23096 29.6154V18.0769Z" fill="#424242"/>
<path d="M7.30762 16.1538C7.30762 15.729 7.65201 15.3846 8.07685 15.3846C8.50168 15.3846 8.84608 15.729 8.84608 16.1538V31.5385C8.84608 31.9633 8.50168 32.3077 8.07685 32.3077C7.65201 32.3077 7.30762 31.9633 7.30762 31.5385V16.1538Z" fill="#424242"/>
<path d="M10.3848 14.2308C10.3848 13.8059 10.7292 13.4615 11.154 13.4615C11.5788 13.4615 11.9232 13.8059 11.9232 14.2308V33.4615C11.9232 33.8864 11.5788 34.2308 11.154 34.2308C10.7292 34.2308 10.3848 33.8864 10.3848 33.4615V14.2308Z" fill="#424242"/>
<path d="M13.4614 14.2308C13.4614 13.8059 13.8058 13.4615 14.2307 13.4615C14.6555 13.4615 14.9999 13.8059 14.9999 14.2308V33.4615C14.9999 33.8864 14.6555 34.2308 14.2307 34.2308C13.8058 34.2308 13.4614 33.8864 13.4614 33.4615V14.2308Z" fill="#424242"/>
<path d="M16.5386 16.5385C16.5386 16.1136 16.883 15.7692 17.3078 15.7692C17.7326 15.7692 18.077 16.1136 18.077 16.5385V31.1538C18.077 31.5787 17.7326 31.9231 17.3078 31.9231C16.883 31.9231 16.5386 31.5787 16.5386 31.1538V16.5385Z" fill="#424242"/>
<path d="M19.6152 19.2308C19.6152 18.8059 19.9596 18.4615 20.3845 18.4615C20.8093 18.4615 21.1537 18.8059 21.1537 19.2308V28.8462C21.1537 29.271 20.8093 29.6154 20.3845 29.6154C19.9596 29.6154 19.6152 29.271 19.6152 28.8462V19.2308Z" fill="#424242"/>
<path d="M22.6924 21.1538C22.6924 20.729 23.0368 20.3846 23.4616 20.3846C23.8864 20.3846 24.2308 20.729 24.2308 21.1538V26.5385C24.2308 26.9633 23.8864 27.3077 23.4616 27.3077C23.0368 27.3077 22.6924 26.9633 22.6924 26.5385V21.1538Z" fill="#424242"/>
<path d="M25.769 22.6923C25.769 22.2675 26.1134 21.9231 26.5383 21.9231C26.9631 21.9231 27.3075 22.2675 27.3075 22.6923V25.3846C27.3075 25.8094 26.9631 26.1538 26.5383 26.1538C26.1134 26.1538 25.769 25.8094 25.769 25.3846V22.6923Z" fill="#424242"/>
<path d="M28.8462 22.6923C28.8462 22.2675 29.1906 21.9231 29.6154 21.9231C30.0403 21.9231 30.3847 22.2675 30.3847 22.6923V25.3846C30.3847 25.8094 30.0403 26.1538 29.6154 26.1538C29.1906 26.1538 28.8462 25.8094 28.8462 25.3846V22.6923Z" fill="#424242"/>
<path d="M31.9229 20.7692C31.9229 20.3444 32.2672 20 32.6921 20C33.1169 20 33.4613 20.3444 33.4613 20.7692V26.9231C33.4613 27.3479 33.1169 27.6923 32.6921 27.6923C32.2672 27.6923 31.9229 27.3479 31.9229 26.9231V20.7692Z" fill="#424242"/>
<path d="M34.6152 18.4616C34.6152 18.0367 34.9596 17.6923 35.3845 17.6923C35.8093 17.6923 36.1537 18.0367 36.1537 18.4616V29.6154C36.1537 30.0402 35.8093 30.3846 35.3845 30.3846C34.9596 30.3846 34.6152 30.0402 34.6152 29.6154V18.4616Z" fill="#424242"/>
<path d="M9.61523 15.7692C9.61523 14.6922 9.61523 14.1537 9.82484 13.7423C10.0092 13.3805 10.3034 13.0863 10.6653 12.9019C11.0766 12.6923 11.6151 12.6923 12.6922 12.6923H28.0768C29.1538 12.6923 29.6923 12.6923 30.1037 12.9019C30.4655 13.0863 30.7597 13.3805 30.9441 13.7423C31.1537 14.1537 31.1537 14.6922 31.1537 15.7692V31.9231C31.1537 33.0001 31.1537 33.5386 30.9441 33.95C30.7597 34.3118 30.4655 34.606 30.1037 34.7904C29.6923 35 29.1538 35 28.0768 35H12.6922C11.6151 35 11.0766 35 10.6653 34.7904C10.3034 34.606 10.0092 34.3118 9.82484 33.95C9.61523 33.5386 9.61523 33.0001 9.61523 31.9231V15.7692Z" fill="#FF9900" fill-opacity="0.7" style="mix-blend-mode:multiply"/>
<path d="M8.07715 4.8077C8.07715 3.85183 8.85204 3.07693 9.80792 3.07693C10.7638 3.07693 11.5387 3.85183 11.5387 4.8077C11.5387 5.76358 10.7638 6.53847 9.80792 6.53847C8.85204 6.53847 8.07715 5.76358 8.07715 4.8077Z" fill="#FF9900"/>
<path d="M29.231 4.8077C29.231 3.85183 30.0058 3.07693 30.9617 3.07693C31.9176 3.07693 32.6925 3.85183 32.6925 4.8077C32.6925 5.76358 31.9176 6.53847 30.9617 6.53847C30.0058 6.53847 29.231 5.76358 29.231 4.8077Z" fill="#FF9900"/>
<path fill-rule="evenodd" clip-rule="evenodd" d="M9.61538 29.2308L9.61538 6.53845H10L10 29.2308H9.61538Z" fill="#FF9900"/>
<path fill-rule="evenodd" clip-rule="evenodd" d="M30.7692 29.2308V6.53845H31.1538V29.2308H30.7692Z" fill="#FF9900"/>
</svg>
