<svg width="104" height="104" viewBox="0 0 104 104" fill="none" xmlns="http://www.w3.org/2000/svg">
<path d="M0 38.4C0 24.9587 0 18.2381 2.61584 13.1042C4.9168 8.58834 8.58834 4.9168 13.1042 2.61584C18.2381 0 24.9587 0 38.4 0H65.6C79.0413 0 85.7619 0 90.8958 2.61584C95.4117 4.9168 99.0832 8.58834 101.384 13.1042C104 18.2381 104 24.9587 104 38.4V65.6C104 79.0413 104 85.7619 101.384 90.8958C99.0832 95.4117 95.4117 99.0832 90.8958 101.384C85.7619 104 79.0413 104 65.6 104H38.4C24.9587 104 18.2381 104 13.1042 101.384C8.58834 99.0832 4.9168 95.4117 2.61584 90.8958C0 85.7619 0 79.0413 0 65.6V38.4Z" fill="white"/>
<path d="M11 47C11 45.8954 11.8954 45 13 45C14.1046 45 15 45.8954 15 47V77C15 78.1046 14.1046 79 13 79C11.8954 79 11 78.1046 11 77V47Z" fill="#424242"/>
<path d="M19 42C19 40.8954 19.8954 40 21 40C22.1046 40 23 40.8954 23 42V82C23 83.1046 22.1046 84 21 84C19.8954 84 19 83.1046 19 82V42Z" fill="#424242"/>
<path d="M27 37C27 35.8954 27.8954 35 29 35C30.1046 35 31 35.8954 31 37V87C31 88.1046 30.1046 89 29 89C27.8954 89 27 88.1046 27 87V37Z" fill="#424242"/>
<path d="M35 37C35 35.8954 35.8954 35 37 35C38.1046 35 39 35.8954 39 37V87C39 88.1046 38.1046 89 37 89C35.8954 89 35 88.1046 35 87V37Z" fill="#424242"/>
<path d="M43 43C43 41.8954 43.8954 41 45 41C46.1046 41 47 41.8954 47 43V81C47 82.1046 46.1046 83 45 83C43.8954 83 43 82.1046 43 81V43Z" fill="#424242"/>
<path d="M51 50C51 48.8954 51.8954 48 53 48C54.1046 48 55 48.8954 55 50V75C55 76.1046 54.1046 77 53 77C51.8954 77 51 76.1046 51 75V50Z" fill="#424242"/>
<path d="M59 55C59 53.8954 59.8954 53 61 53C62.1046 53 63 53.8954 63 55V69C63 70.1046 62.1046 71 61 71C59.8954 71 59 70.1046 59 69V55Z" fill="#424242"/>
<path d="M67 59C67 57.8954 67.8954 57 69 57C70.1046 57 71 57.8954 71 59V66C71 67.1046 70.1046 68 69 68C67.8954 68 67 67.1046 67 66V59Z" fill="#424242"/>
<path d="M75 59C75 57.8954 75.8954 57 77 57C78.1046 57 79 57.8954 79 59V66C79 67.1046 78.1046 68 77 68C75.8954 68 75 67.1046 75 66V59Z" fill="#424242"/>
<path d="M83 54C83 52.8954 83.8954 52 85 52C86.1046 52 87 52.8954 87 54V70C87 71.1046 86.1046 72 85 72C83.8954 72 83 71.1046 83 70V54Z" fill="#424242"/>
<path d="M90 48C90 46.8954 90.8954 46 92 46C93.1046 46 94 46.8954 94 48V77C94 78.1046 93.1046 79 92 79C90.8954 79 90 78.1046 90 77V48Z" fill="#424242"/>
<path d="M25 41C25 38.1997 25 36.7996 25.545 35.73C26.0243 34.7892 26.7892 34.0243 27.73 33.545C28.7996 33 30.1997 33 33 33H73C75.8003 33 77.2004 33 78.27 33.545C79.2108 34.0243 79.9757 34.7892 80.455 35.73C81 36.7996 81 38.1997 81 41V83C81 85.8003 81 87.2004 80.455 88.27C79.9757 89.2108 79.2108 89.9757 78.27 90.455C77.2004 91 75.8003 91 73 91H33C30.1997 91 28.7996 91 27.73 90.455C26.7892 89.9757 26.0243 89.2108 25.545 88.27C25 87.2004 25 85.8003 25 83V41Z" fill="#FF9900" fill-opacity="0.7" style="mix-blend-mode:multiply"/>
<path d="M21 12.5C21 10.0147 23.0147 8 25.5 8C27.9853 8 30 10.0147 30 12.5C30 14.9853 27.9853 17 25.5 17C23.0147 17 21 14.9853 21 12.5Z" fill="#FF9900"/>
<path d="M76 12.5C76 10.0147 78.0147 8 80.5 8C82.9853 8 85 10.0147 85 12.5C85 14.9853 82.9853 17 80.5 17C78.0147 17 76 14.9853 76 12.5Z" fill="#FF9900"/>
<path fill-rule="evenodd" clip-rule="evenodd" d="M25 76L25 17H26L26 76H25Z" fill="#FF9900"/>
<path fill-rule="evenodd" clip-rule="evenodd" d="M80 76V17H81V76H80Z" fill="#FF9900"/>
</svg>
